<?xml version="1.0" encoding="utf-8"?>
<!-- Generator: Adobe Illustrator 16.0.4, SVG Export Plug-In . SVG Version: 6.00 Build 0)  -->
<!DOCTYPE svg PUBLIC "-//W3C//DTD SVG 1.1//EN" "http://www.w3.org/Graphics/SVG/1.1/DTD/svg11.dtd">
<svg version="1.1" id="Layer_1" xmlns="http://www.w3.org/2000/svg" xmlns:xlink="http://www.w3.org/1999/xlink" x="0px" y="0px"
	 width="7700.43px" height="2007.791px" viewBox="0 0 7700.43 2007.791" enable-background="new 0 0 7700.43 2007.791"
	 xml:space="preserve">
<text transform="matrix(1 0 0 1 5501.9492 2967.2139)" fill="#4D5253" font-family="'Oswald-Light'" font-size="789.2178">Stockez</text>
<text transform="matrix(1 0 0 1 5664.1855 3914.2764)" fill="#4D5253" font-family="'Oswald-Light'" font-size="789.2178">Oubliez</text>
<text transform="matrix(1 0 0 1 4839.5156 4861.3369)" fill="#4D5253" font-family="'Oswald-Light'" font-size="789.2178">Découvrez</text>
<text transform="matrix(1 0 0 1 118.3125 3251.3096)" fill="#4D5253" font-family="'Oswald-Light'" font-size="789.2178">Stock</text>
<text transform="matrix(1 0 0 1 280.5493 4198.3721)" fill="#4D5253" font-family="'Oswald-Light'" font-size="789.2178">Oubli</text>
<text transform="matrix(1 0 0 1 -544.1221 5145.4326)" fill="#4D5253" font-family="'Oswald-Light'" font-size="789.2178">Découvr</text>
<line fill="none" stroke="#4D5253" stroke-width="30" stroke-miterlimit="10" x1="1893" y1="2573.091" x2="1893" y2="5298.091"/>
<text transform="matrix(1 0 0 1 1947.1514 4156.3096)" fill="#4D5253" font-family="'Oswald-Light'" font-size="789.2178">-ez</text>
<line fill="none" stroke="#4D5253" stroke-width="30" stroke-miterlimit="10" x1="7891" y1="2326.091" x2="7891" y2="5051.091"/>
<text transform="matrix(1 0 0 1 11538.8955 2967.2139)" fill="#4D5253" font-family="'Oswald-Light'" font-size="789.2178">STOCKEZ</text>
<text transform="matrix(1 0 0 1 11704.9863 3914.2764)" fill="#4D5253" font-family="'Oswald-Light'" font-size="789.2178">OUBLIEZ</text>
<text transform="matrix(1 0 0 1 9504.1934 4861.3369)" fill="#4D5253" font-family="'Oswald-Light'" font-size="789.2178">(RE)DECOUVREZ</text>
<text transform="matrix(1 0 0 1 -1543.0986 6998.1123)" font-family="'Oswald-Light'" font-size="931.6885">Essayez, vous me remercierez plus tard </text>
<g>
	<path fill="#4D5253" d="M745.166,1581.839v-40.737h64.527c10.187,0,17.247-1.925,21.234-5.944c3.948-3.938,5.96-11.056,5.96-21.234
		v-668.96c0-10.178-2.012-17.217-5.96-21.22c-3.987-3.956-11.049-5.97-21.234-5.97h-64.527v-40.729h288.671v736.879
		c0,10.181,1.946,17.297,5.926,21.234c3.939,4.021,11.054,5.944,21.234,5.944h64.511v40.737H745.166L745.166,1581.839z"/>
	<path fill="#6DB9B6" d="M1504.252,949.532l8.479,1.716c50.92-126.755,121.663-190.165,212.232-190.165
		c29.452,0,56.021,4.213,79.819,12.749c23.761,8.484,42.458,18.648,56.016,30.566c13.59,11.904,25.459,26.888,35.65,44.993
		c10.188,18.139,17.005,34.214,20.368,48.412c3.4,14.127,7.366,30.853,11.896,50.057h8.479
		c21.504-56.598,49.817-101.857,84.911-135.86c35.073-33.914,73.558-50.917,115.447-50.917c52.048,0,95.64,12.451,130.756,37.367
		c28.263,20.345,50.64,48.692,67.068,84.855c16.396,36.291,24.601,73.611,24.601,112.061v522.979
		c0,10.155,1.989,17.272,5.964,21.231c3.938,3.979,11.017,5.952,21.19,5.952h64.522v40.732h-370.123v-40.732h54.325
		c10.198,0,17.238-1.973,21.229-5.952c3.967-3.959,5.944-11.076,5.944-21.231v-572.2c0-87.146-26.052-130.715-78.091-130.715
		c-36.264,0-70.765,34.212-103.591,102.728c-32.85,68.509-49.247,147.432-49.247,236.817v363.369
		c0,10.155,1.986,17.272,5.952,21.231c3.95,3.979,11.054,5.952,21.248,5.952h54.302v40.732h-359.945v-40.732h54.347
		c10.172,0,17.256-1.973,21.212-5.952c3.948-3.959,5.928-11.076,5.928-21.231V915.595c0-16.979-0.566-30.273-1.68-39.891
		c-1.146-9.63-3.698-19.793-7.641-30.572c-3.984-10.756-10.471-18.352-19.521-22.928c-9.076-4.488-20.96-6.774-35.653-6.774
		c-23.785,0-48.421,15.288-73.881,45.856c-25.465,30.535-47.273,72.43-65.364,125.63c-18.111,53.207-27.151,109.221-27.151,168.059
		v363.369c0,10.155,1.938,17.272,5.926,21.231c3.951,3.979,11.042,5.952,21.227,5.952h54.335v40.732h-234.003v-40.732
		l-16.264-11.013c10.171,0,19.056-20.409,23.033-24.39c3.938-3.96-21.682-7.455-21.682-17.612"/>
	<path fill="#6DB9B6" d="M1542.878,1544.091c-10.163,0-19.117-1.229-23.057-5.248c-3.968-3.94-7.821-10.36-7.821-20.542v-522.96
		c0-38.465-6.337-75.768-22.735-112.059c-16.42-36.181-37.88-64.488-66.155-84.877c-35.102-24.896-78.218-37.383-130.265-37.383
		c-41.898,0-80.157,18.126-115.223,52.083c-35.097,33.982-63.181,79.984-84.679,136.984H1090v122.566
		c6-56.354,23.296-107.858,45.671-154.523c32.826-68.492,67.158-102.723,103.414-102.723c52.038,0,77.916,43.528,77.916,130.732
		v572.156c0,10.182-1.089,16.601-5.062,20.542c-3.992,4.018-10.143,5.248-20.322,5.248H1234v44h373v-44h-64.122V1544.091z"/>
	<path fill="#4D5253" d="M2450.135,1169.967c0-117.16,32.277-214.587,96.881-292.277c64.582-77.697,142.847-116.606,234.793-116.606
		c66.754,0,123.979,23.575,171.59,70.626c47.6,47.079,79.608,110.015,96.051,188.825c7.648,35.032,11.475,89.758,11.475,164.203
		h-400.615c0,34.65,0.242,61.264,0.82,79.692c0.521,18.426,2.18,39.578,4.936,63.428c2.698,23.854,6.806,46.044,12.301,66.644
		c9.846,40.124,29,72.106,57.479,95.94c28.457,23.911,60.743,35.807,96.852,35.807c27.371,0,52.83-7.006,76.375-21.009
		c23.528-14.064,42.679-32.447,57.454-55.069c14.779-22.687,27.086-47.5,36.932-74.486c9.857-27.021,15.854-54.519,18.08-82.59
		h42.688c-2.213,26.227-6.554,51.982-13.136,77.166c-6.562,25.179-16.991,50.365-31.193,75.523
		c-14.249,25.203-30.659,47.607-49.258,67.318c-18.624,19.678-42.702,35.579-72.25,47.641c-29.545,12.021-62.41,18.04-98.512,18.04
		c-102.912,0-186.914-39.412-252.031-118.214C2482.706,1381.76,2450.135,1284.864,2450.135,1169.967z M2660.307,1138.754h210.159
		c0-116.008-7.378-201.4-22.157-256.146c-14.787-54.73-42.413-82.123-82.91-82.123c-40.509,0-68.158,27.393-82.933,82.123
		C2667.686,937.354,2660.307,1022.747,2660.307,1138.754z"/>
	<path fill="#4D5253" d="M705.47,1376.104c-43.927,91.656-90.276,137.463-138.794,137.463c-69.638,0-104.675-58.251-104.675-174.948
		V572.952c0-13.626,2.66-21.39,7.975-26.663c5.343-5.379,14.774-6.197,28.398-6.197H573v-60h-93v-453H366v84.918
		c0,103.906-26.945,188.148-81.259,252.687C230.427,429.265,167,467.335,74,479.917v60.175h88.131
		c13.603,0,24.858,0.818,30.131,6.197c5.308,5.273,9.738,13.037,9.738,26.663v699.83c0,51.474,9.208,101.394,31.152,149.957
		c21.971,48.416,51.054,86.302,88.892,113.583c46.972,33.315,104.854,50.025,174.503,50.025c56.07,0,107.358-23.378,154.283-68.818
		c46.967-45.478,84.639-106.438,113.407-182.438H765v-165.773C759,1244.73,735.414,1313.655,705.47,1376.104z"/>
	<path fill="#4D5253" d="M3117.273,1579.032v-54.078h118.388c15.784,0,26.479-2.851,32.165-8.521
		c5.597-5.563,8.434-16.278,8.434-32.1V469.468c0-15.785-2.837-26.498-8.434-32.151c-5.686-5.632-16.379-8.449-32.165-8.449
		h-118.388v-54.158h593.563c67.396,0,129.733,11.863,186.993,35.539c57.249,23.703,103.283,58.08,138.123,103.184
		c34.801,45.097,52.211,94.752,52.211,148.863c0,38.373-8.38,73.891-25.075,106.56c-16.707,32.713-39.021,60.313-66.851,82.891
		c-27.84,22.576-57.399,41.147-88.566,55.813c-31.216,14.648-65.235,27.019-101.979,37.162v10.158
		c39.125,5.701,78.259,16.07,117.4,31.309c39.137,15.215,75.906,34.7,110.316,58.379c34.397,23.655,62.25,53.584,83.607,89.614
		c21.354,36.14,32.039,75.031,32.039,116.718c0,68.801-18.986,128.315-56.939,178.432c-37.932,50.234-86.82,87.693-146.595,112.498
		c-59.812,24.844-127.067,37.205-201.793,37.205L3117.273,1579.032L3117.273,1579.032z M3526.6,922.777h155.604
		c31.553,0,58.076-6.201,79.505-18.646c21.418-12.369,37.207-30.434,47.361-54.106c10.145-23.652,17.471-50.166,22.006-79.464
		c4.482-29.313,6.751-65.397,6.751-108.266c0-74.465-12.959-131.938-38.911-172.514c-25.933-40.603-61.462-60.914-106.562-60.914
		h-125.152c-15.799,0-26.522,2.817-32.137,8.449c-5.685,5.653-8.466,16.366-8.466,32.151V922.777z M3526.6,1484.333
		c0,15.82,2.781,26.535,8.466,32.1c5.612,5.673,16.338,8.521,32.137,8.521h115.003c29.311,0,54.409-4.281,75.296-12.742
		c20.84-8.41,39.463-22.498,55.81-42.26c16.346-19.703,28.452-47.922,36.351-84.576c7.899-36.596,11.861-81.475,11.861-134.479
		c0-52.981-3.962-97.797-11.861-134.444c-7.897-36.666-20.005-64.82-36.351-84.603c-16.347-19.684-34.97-33.812-55.81-42.258
		c-20.887-8.488-45.985-12.72-75.296-12.72H3526.6V1484.333z"/>
	<path fill="#4D5253" d="M4174.954,1579.032v-40.582h64.269c10.166,0,17.213-1.916,21.176-5.922
		c3.922-3.925,5.906-11.013,5.906-21.154V844.955c0-10.141-1.983-17.15-5.906-21.139c-3.963-3.939-11.01-5.945-21.176-5.945h-64.269
		v-40.576h287.576V944.72l8.437,1.713c17.383-51.815,43.49-96.409,78.334-133.635c34.84-37.158,73.144-55.809,114.903-55.809
		c41.783,0,76.707,14.703,104.737,44.016c27.985,29.299,42.012,66.523,42.012,111.625c0,40.594-11.832,76.11-35.518,106.55
		c-23.685,30.457-53.021,45.666-87.945,45.666c-30.457,0-56.402-9.279-77.832-27.928c-21.427-18.59-32.139-41.398-32.139-68.468
		c0-27.097,10.672-56.396,32.061-87.98c12.445-18.014,18.729-31.008,18.729-38.875c0-11.291-6.242-16.934-18.649-16.934
		c-23.658,0-46.776,15.795-69.342,47.379c-22.571,31.582-41.172,74.393-55.81,128.562c-14.678,54.091-21.978,111.064-21.978,170.804
		v339.969c0,10.143,1.919,17.229,5.905,21.154c3.926,4.006,10.99,5.922,21.137,5.922h54.139v40.582H4174.954L4174.954,1579.032z"/>
	<path fill="#4D5253" d="M4851.004,1579.032v-40.582h64.311c10.144,0,17.189-1.916,21.131-5.922
		c3.946-3.925,5.951-11.013,5.951-21.154V844.955c0-10.141-2.004-17.15-5.951-21.139c-3.94-3.939-10.987-5.945-21.131-5.945h-64.311
		v-40.576h287.578v734.079c0,10.143,1.941,17.229,5.882,21.154c3.966,4.006,11.03,5.922,21.179,5.922h64.262v40.582H4851.004
		L4851.004,1579.032z M4950.832,569.24c-23.668-23.652-35.518-53.539-35.518-89.615c0-36.088,11.85-65.961,35.518-89.68
		c23.684-23.652,53.546-35.527,89.611-35.527c36.111,0,65.996,11.875,89.682,35.527c23.686,23.719,35.518,53.592,35.518,89.68
		c0,36.076-11.832,65.963-35.518,89.615c-23.686,23.674-53.568,35.526-89.682,35.526
		C5004.378,604.767,4974.516,592.914,4950.832,569.24z"/>
	<path fill="#4D5253" d="M5330.43,1381.157c-24.826-64.31-37.225-131.929-37.225-202.955c0-71.047,11.809-138.717,35.533-203.036
		c23.689-64.25,58.637-116.697,104.867-157.295c46.256-40.576,98.643-60.881,157.277-60.881c36.125,0,68.226,10.766,96.428,32.156
		c28.177,21.438,51.312,50.754,69.343,87.965l10.147-3.414V442.398c0-10.154-1.939-17.156-5.888-21.164
		c-3.963-3.922-11.006-5.929-21.172-5.929h-94.7v-40.598h317.971v1136.665c0,10.143,1.981,17.23,5.922,21.154
		c3.949,4.006,11.013,5.922,21.181,5.922h94.675v40.582h-317.988v-98.092h-10.146c-15.797,31.569-37.18,59.241-64.262,82.887
		c-27.06,23.666-58.651,35.516-94.701,35.516c-58.651,0-111.674-20.311-159.024-60.893
		C5391.32,1497.874,5355.211,1445.422,5330.43,1381.157z M5509.699,1178.202c0,244.688,37.225,367.022,111.658,367.022
		c25.923,0,49.904-15.78,71.88-47.352c21.993-31.594,39.756-75.547,53.272-131.943c13.541-56.379,20.291-117.25,20.291-182.67
		c0-63.158-5.064-119.557-15.207-169.139c-10.142-49.606-22.588-88.563-37.203-116.706c-14.684-28.178-30.181-49.619-46.527-64.318
		c-16.344-14.584-31.869-21.94-46.506-21.94C5546.924,811.156,5509.699,933.494,5509.699,1178.202z"/>
	<path fill="#4D5253" d="M6131.066,1771.87c0-38.326,14.072-72.748,42.291-103.201c28.18-30.437,67.069-51.312,116.735-62.559
		v-5.082c-33.866-3.396-64.284-17.459-91.36-42.287c-27.082-24.779-40.607-56.943-40.607-96.408
		c0-106.674,63.13-172.334,189.445-197.031v-6.496c-20.316-9.006-39.193-19.719-56.674-32.163
		c-17.463-12.423-34.945-28.207-52.434-47.421c-17.507-19.159-31.279-42.309-41.424-69.457
		c-10.163-27.057-15.249-56.426-15.249-88.071c0-51.991,14.663-98.352,44.019-139.104c29.297-40.719,67.047-71.848,113.276-93.338
		c46.231-21.494,96.435-32.26,150.567-32.26c92.444,0,170.82,29.414,235.082,88.133h5.084
		c34.967-58.719,76.709-88.133,125.197-88.133c36.064,0,65.379,10.987,87.951,33c22.521,22.028,33.807,48.18,33.807,78.623
		c0,33.86-9.278,63.17-27.901,87.975c-18.606,24.804-40.896,37.224-66.819,37.224c-18.054,0-33.812-5.346-47.328-16.062
		c-13.558-10.732-20.31-25.096-20.31-43.172c0-18,8.981-38.31,27.06-60.879c18.03-18.019,27.059-33.797,27.059-47.326
		c0-18.014-11.873-27.072-35.516-27.072c-30.435,0-59.199,23.76-86.242,71.31c36.045,39.645,54.076,94.532,54.076,164.708
		c0,62.897-29.315,120.461-87.929,172.762c-58.674,52.205-134.199,78.319-226.64,78.319c-31.594,0-58.949,0.886-82.068,2.57
		c-23.096,1.707-46.802,5.357-70.992,11.012c-24.296,5.646-42.896,14.927-55.846,27.857c-12.976,13.016-19.444,29.104-19.444,48.235
		c0,39.464,27.583,59.185,82.885,59.185h267.222c38.345,0,73.838,4.488,106.576,13.582c32.688,9.006,62.004,22.227,87.969,39.729
		c25.896,17.509,46.485,41.472,61.713,71.881c15.248,30.457,22.84,65.382,22.84,104.845c0,86.854-34.674,161.26-104.021,223.27
		c-69.371,62.029-161.515,93.054-276.522,93.054c-67.701,0-129.396-7.912-185.238-23.687
		c-55.833-15.818-101.491-40.074-137.01-72.742C6148.828,1852.475,6131.066,1814.743,6131.066,1771.87z M6191.957,1773.577
		c0,33.805,14.936,62.826,44.841,87.104c29.866,24.25,65.95,41.439,108.239,51.605c42.285,10.15,87.653,15.232,136.164,15.232
		c48.441,0,94.148-6.226,137.006-18.671c42.854-12.424,79.514-32.69,109.924-60.866c30.477-28.177,45.688-62.554,45.688-103.22
		c0-22.502-6.753-41.653-20.295-57.452c-13.559-15.775-32.705-28.22-57.534-37.226c-24.804-9.022-51.312-15.521-79.467-19.424
		c-28.228-4.012-59.819-5.945-94.728-5.945c-37.225,0-72.467,1.935-105.744,5.945c-33.262,3.902-68.248,10.4-104.862,19.424
		c-36.636,9.006-65.685,24.236-87.063,45.683C6202.65,1717.198,6191.957,1743.12,6191.957,1773.577z M6411.854,851.109
		c-15.821,35.645-23.709,92.537-23.709,170.583c0,78.163,7.888,135.004,23.709,170.694c15.754,35.629,42.838,53.426,81.199,53.426
		c36.088,0,61.988-17.504,77.826-52.618c15.733-35.054,23.644-92.242,23.644-171.502c0-79.192-7.909-136.372-23.644-171.438
		c-15.838-35.125-41.737-52.676-77.826-52.676C6454.691,797.58,6427.607,815.423,6411.854,851.109z"/>
	<path fill="#4D5253" d="M6992.24,1178.202c0-120.693,33.244-221.056,99.807-301.091c66.498-80.039,147.154-120.121,241.871-120.121
		c68.729,0,127.703,24.287,176.756,72.754c49.041,48.5,81.984,113.332,98.939,194.519c7.869,36.091,11.832,92.464,11.832,169.154
		h-412.707c0,35.695,0.254,63.109,0.865,82.096c0.529,18.98,2.24,40.771,5.084,65.341c2.787,24.571,6.982,47.432,12.682,68.651
		c10.144,41.334,29.857,74.279,59.197,98.832c29.297,24.635,62.555,36.89,99.76,36.89c28.18,0,54.436-7.218,78.674-21.646
		c24.229-14.488,43.949-33.426,59.199-56.729c15.229-23.367,27.898-48.933,38.047-76.729c10.17-27.84,16.32-56.164,18.604-85.082
		h43.974c-2.278,27.016-6.752,53.549-13.517,79.492c-6.752,25.938-17.506,51.885-32.127,77.801
		c-14.699,25.963-31.594,49.041-50.766,69.35c-19.148,20.271-43.969,36.654-74.41,49.076
		c-30.428,12.384-64.283,18.584-101.486,18.584c-106.026,0-192.537-40.602-259.631-121.778
		C7025.775,1396.381,6992.24,1296.562,6992.24,1178.202z M7208.738,1146.047h216.498c0-119.506-7.613-207.472-22.82-263.87
		c-15.227-56.381-43.721-84.598-85.416-84.598c-41.719,0-70.188,28.217-85.438,84.598
		C7216.332,938.576,7208.738,1026.542,7208.738,1146.047z"/>
	<path fill="#4D5253" d="M845.691,570.055c-23.668-23.652-35.519-53.54-35.519-89.615c0-36.088,11.851-65.962,35.519-89.68
		c23.684-23.652,53.545-35.526,89.61-35.526c36.111,0,65.996,11.874,89.683,35.526c23.684,23.718,35.516,53.592,35.516,89.68
		c0,36.075-11.832,65.963-35.516,89.615c-23.687,23.674-53.57,35.527-89.683,35.527
		C899.236,605.583,869.375,593.729,845.691,570.055z"/>
	<path fill="#6DB9B6" d="M1095.759,480.091c0.83,5.66,1.263,11.518,1.263,17.332c0,14.354-2.599,27.668-7.471,41.668h300.231H2993
		v-59H1095.759z"/>
</g>
</svg>
