<?xml version="1.0" encoding="utf-8"?>
<!-- Generator: Adobe Illustrator 16.0.0, SVG Export Plug-In . SVG Version: 6.00 Build 0)  -->
<!DOCTYPE svg PUBLIC "-//W3C//DTD SVG 1.0//EN" "http://www.w3.org/TR/2001/REC-SVG-20010904/DTD/svg10.dtd">
<svg version="1.0" id="Layer_1" xmlns="http://www.w3.org/2000/svg" xmlns:xlink="http://www.w3.org/1999/xlink" x="0px" y="0px"
	 width="291px" height="240.63px" viewBox="0 0 291 240.63" enable-background="new 0 0 291 240.63" xml:space="preserve">
<g>
	<path fill="#4D5253" d="M89.39,105.071l1.805,0.365c10.841-26.985,25.902-40.485,45.185-40.485c6.27,0,11.927,0.897,16.993,2.715
		c5.059,1.806,9.039,3.97,11.926,6.507c2.893,2.535,5.42,5.725,7.59,9.579c2.169,3.861,3.62,7.284,4.336,10.307
		c0.725,3.008,1.568,6.568,2.533,10.657h1.805c4.578-12.05,10.606-21.686,18.077-28.925c7.468-7.22,15.66-10.84,24.579-10.84
		c11.08,0,20.361,2.651,27.837,7.955c6.018,4.332,10.781,10.367,14.279,18.066c3.49,7.726,5.237,15.672,5.237,23.857v111.34
		c0,2.163,0.424,3.678,1.27,4.521c0.839,0.848,2.345,1.268,4.512,1.268h13.736v8.672h-78.798v-8.672h11.565
		c2.171,0,3.67-0.42,4.52-1.268c0.845-0.843,1.266-2.357,1.266-4.521V104.351c0-18.554-5.546-27.829-16.625-27.829
		c-7.721,0-15.065,7.284-22.055,21.87c-6.993,14.586-10.484,31.388-10.484,50.418v77.36c0,2.163,0.423,3.678,1.268,4.521
		c0.841,0.848,2.353,1.268,4.523,1.268h11.561v8.672h-76.632v-8.672h11.57c2.166,0,3.674-0.42,4.517-1.268
		c0.84-0.843,1.262-2.357,1.262-4.521V97.847c0-3.615-0.121-6.445-0.357-8.492c-0.244-2.051-0.788-4.214-1.627-6.509
		c-0.849-2.29-2.229-3.907-4.156-4.882c-1.932-0.955-4.462-1.442-7.59-1.442c-5.064,0-10.309,3.255-15.729,9.763
		c-5.421,6.501-10.064,15.421-13.916,26.747c-3.855,11.327-5.78,23.252-5.78,35.778v77.36c0,2.163,0.412,3.678,1.262,4.521
		c0.841,0.848,2.351,1.268,4.519,1.268h11.568v8.672H56.919v-8.672l-3.462-2.345c2.165,0,4.057-4.345,4.903-5.192
		c0.839-0.843-4.615-1.587-4.615-3.75"/>
	<path fill="#4D5253" d="M97.613,232c-2.164,0-4.09-0.437-4.928-1.291c-0.846-0.84-1.685-2.38-1.685-4.548V114.824
		c0-8.188-1.329-16.131-4.821-23.856c-3.496-7.703-8.055-13.729-14.075-18.07c-7.473-5.3-16.647-7.959-27.728-7.959
		c-8.921,0-17.063,3.764-24.529,10.993C12.376,83.166,6.4,93,1.823,105H1v26.285c1-11.998,5.058-22.963,9.822-32.897
		c6.988-14.582,14.084-21.87,21.803-21.87C43.703,76.518,49,85.785,49,104.351v121.811c0,2.168,0.03,3.708-0.816,4.548
		c-0.85,0.854-1.897,1.291-4.064,1.291H31v9h80v-9H97.613z"/>
	<path fill="#4D5253" d="M289.646,0H1.96H0v16.774c0,0.41,0.196,0.818,0.041,1.226h0.436h54.891h180.871H291V0H289.646z"/>
</g>
</svg>
